<svg enable-background="new 2.7 326.5 506.7 181" height="86" width="86"
  xmlns="http://www.w3.org/2000/svg">
  <path d="m42.999884 0c-23.747155 0-42.99890906 19.251082-42.99890906 42.99891 0 .183209-.00219362.365793 0 .548437-.00219362.02254 0 .04531 0 .06856v41.76605c0 .338885.23821732.617001.53473175.617001h41.92729531c.01824.000222.03655-.000202.05484 0 .159892.0017.319586 0 .479875 0 .160308 0 .319995.0017.479874 0 .01777.0024.03659 0 .05484 0h41.927296c.296515 0 .534732-.278129.534732-.617001v-41.76605c0-.02325.0024-.046 0-.06856.0024-.182664 0-.365255 0-.548437.000008-23.747492-19.250738-42.99891-42.998902-42.99891z" fill="#426e8d" stroke-width=".335929"/>
  <g fill="#fdffff" stroke-width=".072">
    <path d="m13.771079 60.052785q-1.94532 0-3.597671-.574221-1.6406318-.574221-2.8242304-1.710944-1.1835986-1.136724-1.8398514-2.83595-.6445339-1.699225-.6445339-3.925797 0-2.074227.6210963-3.761734.6210964-1.687507 1.804695-2.894544 1.1367235-1.160161 2.8125114-1.792976 1.687507-.632815 3.679703-.632815 1.101567 0 1.980477.128907.890629.117188 1.640632.316408.785159.222657 1.417974.503908.644534.269532 1.125005.503908v4.230486h-.515627q-.328127-.281251-.832035-.667971-.492189-.38672-1.125005-.761722-.644533-.375002-1.394537-.632815-.750003-.257814-1.605475-.257814-.949223 0-1.804695.304689-.855472.29297-1.582038.984379-.691409.667972-1.1250044 1.769539-.4218767 1.101567-.4218767 2.671886 0 1.640632.4570331 2.742199.468752 1.101567 1.17188 1.734382.714847.644534 1.593756.925785.87891.269532 1.734383.269532.820316 0 1.617194-.246095.808597-.246094 1.488287-.667971.574221-.339845 1.066411-.726566.492189-.38672.808597-.667971h.468752v4.171892q-.656253.29297-1.253912.550784-.597658.257813-1.253911.445314-.855472.246095-1.605475.375002-.750003.128906-2.062509.128906z"/>
    <path d="m38.896184 59.71294h-4.500019v-7.687532h-6.644559v7.687532h-4.500018v-17.449291h4.500018v6.386745h6.644559v-6.386745h4.500019z"/>
    <path d="m58.630641 53.396508q0 3.234388-1.968758 4.957052-1.968758 1.722663-5.800805 1.722663-3.832047 0-5.800805-1.722663-1.95704-1.722664-1.95704-4.945333v-11.144578h4.523456v10.886764q0 1.816414.761722 2.707043.761722.890628 2.472667.890628 1.687507 0 2.460947-.855472.78516-.855472.78516-2.742199v-10.886764h4.523456z"/>
    <path d="m81.130734 59.71294h-4.476581v-11.683642l-3.234389 7.582063h-3.105481l-3.234389-7.582063v11.683642h-4.242205v-17.449291h5.226584l3.925798 8.753943 3.914079-8.753943h5.226584z"/>
  </g>
</svg>